<?xml version="1.0" standalone="no"?>
<!DOCTYPE svg PUBLIC "-//W3C//DTD SVG 20010904//EN"
 "http://www.w3.org/TR/2001/REC-SVG-20010904/DTD/svg10.dtd">
<svg version="1.0" xmlns="http://www.w3.org/2000/svg"
 width="90.000000pt" height="90.000000pt" viewBox="0 0 90.000000 90.000000"
 preserveAspectRatio="xMidYMid meet">
<metadata>
Created by potrace 1.14, written by Peter Selinger 2001-2017
</metadata>
<g transform="translate(0.000000,90.000000) scale(0.100000,-0.100000)"
fill="#000000" stroke="none">
<path d="M403 825 c-29 -8 -82 -33 -119 -55 -50 -31 -75 -39 -107 -39 -23 1
-55 1 -70 0 l-28 -1 25 -36 25 -37 -24 -32 c-34 -44 -57 -111 -57 -170 0 -55
47 -171 103 -251 56 -82 220 -168 299 -158 80 11 99 15 131 31 46 24 119 76
119 86 0 5 11 23 24 40 32 41 79 137 101 206 44 135 -1 292 -104 362 -89 60
-219 82 -318 54z m119 -136 c101 -51 150 -169 116 -280 -32 -108 -180 -194
-286 -167 -69 17 -148 103 -172 188 l-8 26 129 0 129 -1 0 133 0 132 28 -6
c15 -4 44 -15 64 -25z"/>
</g>
</svg>
